<?xml version="1.0" encoding="UTF-8" standalone="no"?>
<!DOCTYPE svg PUBLIC "-//W3C//DTD SVG 1.1//EN"
 "http://www.w3.org/Graphics/SVG/1.1/DTD/svg11.dtd">
<!-- Generated by graphviz version 2.38.0 (20140413.2041)
 -->
<!-- Title: models_diagram Pages: 1 -->
<svg width="467pt" height="523pt"
 viewBox="0.00 0.00 466.97 523.00" xmlns="http://www.w3.org/2000/svg" xmlns:xlink="http://www.w3.org/1999/xlink">
<g id="graph0" class="graph" transform="scale(1 1) rotate(0) translate(4 519)">
<title>models_diagram</title>
<polygon fill="none" stroke="none" points="-4,4 -4,-519 462.966,-519 462.966,4 -4,4"/>
<!-- _diagram_info -->
<g id="node1" class="node"><title>_diagram_info</title>
<text text-anchor="start" x="8" y="-486.6" font-family="Times,serif" font-size="13.00">Models diagram</text>
<text text-anchor="start" x="8" y="-473.6" font-family="Times,serif" font-size="13.00">Date: Jul 29 2016 &#45; 19:16</text>
<text text-anchor="start" x="8" y="-460.6" font-family="Times,serif" font-size="13.00">Migration version: 20160729231307</text>
<text text-anchor="start" x="8" y="-447.6" font-family="Times,serif" font-size="13.00">Generated by RailRoady 1.5.1</text>
<text text-anchor="start" x="8" y="-434.6" font-family="Times,serif" font-size="13.00">http://railroady.prestonlee.com</text>
</g>
<!-- PokeUser -->
<g id="node2" class="node"><title>PokeUser</title>
<path fill="none" stroke="black" d="M237.182,-0.5C237.182,-0.5 346.193,-0.5 346.193,-0.5 352.193,-0.5 358.193,-6.5 358.193,-12.5 358.193,-12.5 358.193,-88.5 358.193,-88.5 358.193,-94.5 352.193,-100.5 346.193,-100.5 346.193,-100.5 237.182,-100.5 237.182,-100.5 231.182,-100.5 225.182,-94.5 225.182,-88.5 225.182,-88.5 225.182,-12.5 225.182,-12.5 225.182,-6.5 231.182,-0.5 237.182,-0.5"/>
<text text-anchor="middle" x="291.688" y="-85.3" font-family="Times,serif" font-size="14.00">PokeUser</text>
<polyline fill="none" stroke="black" points="225.182,-78.5 358.193,-78.5 "/>
<text text-anchor="start" x="233.182" y="-63.3" font-family="Times,serif" font-size="14.00">id :INTEGER</text>
<text text-anchor="start" x="233.182" y="-49.3" font-family="Times,serif" font-size="14.00">pokemon_id :integer</text>
<text text-anchor="start" x="233.182" y="-35.3" font-family="Times,serif" font-size="14.00">user_id :integer</text>
<text text-anchor="start" x="233.182" y="-21.3" font-family="Times,serif" font-size="14.00">created_at :datetime</text>
<text text-anchor="start" x="233.182" y="-7.3" font-family="Times,serif" font-size="14.00">updated_at :datetime</text>
</g>
<!-- Pokemon -->
<g id="node3" class="node"><title>Pokemon</title>
<path fill="none" stroke="black" d="M237.182,-414.5C237.182,-414.5 346.193,-414.5 346.193,-414.5 352.193,-414.5 358.193,-420.5 358.193,-426.5 358.193,-426.5 358.193,-502.5 358.193,-502.5 358.193,-508.5 352.193,-514.5 346.193,-514.5 346.193,-514.5 237.182,-514.5 237.182,-514.5 231.182,-514.5 225.182,-508.5 225.182,-502.5 225.182,-502.5 225.182,-426.5 225.182,-426.5 225.182,-420.5 231.182,-414.5 237.182,-414.5"/>
<text text-anchor="middle" x="291.688" y="-499.3" font-family="Times,serif" font-size="14.00">Pokemon</text>
<polyline fill="none" stroke="black" points="225.182,-492.5 358.193,-492.5 "/>
<text text-anchor="start" x="233.182" y="-477.3" font-family="Times,serif" font-size="14.00">id :INTEGER</text>
<text text-anchor="start" x="233.182" y="-463.3" font-family="Times,serif" font-size="14.00">name :varchar</text>
<text text-anchor="start" x="233.182" y="-449.3" font-family="Times,serif" font-size="14.00">description :varchar</text>
<text text-anchor="start" x="233.182" y="-435.3" font-family="Times,serif" font-size="14.00">created_at :datetime</text>
<text text-anchor="start" x="233.182" y="-421.3" font-family="Times,serif" font-size="14.00">updated_at :datetime</text>
</g>
<!-- Pokemon&#45;&gt;PokeUser -->
<g id="edge1" class="edge"><title>Pokemon&#45;&gt;PokeUser</title>
<path fill="none" stroke="#af70fc" d="M256.247,-406.748C251.893,-397.443 248.125,-387.673 245.688,-378 219.521,-274.134 219.521,-240.866 245.688,-137 247.98,-127.902 251.45,-118.718 255.478,-109.915"/>
<ellipse fill="none" stroke="#af70fc" cx="258.09" cy="-410.508" rx="4.00002" ry="4.00002"/>
<polygon fill="#af70fc" stroke="#af70fc" points="255.486,-109.898 263.899,-102.864 257.668,-105.399 259.851,-100.9 259.851,-100.9 259.851,-100.9 257.668,-105.399 255.802,-98.9362 255.486,-109.898 255.486,-109.898"/>
</g>
<!-- User -->
<g id="node4" class="node"><title>User</title>
<path fill="none" stroke="black" d="M266.41,-137.5C266.41,-137.5 446.966,-137.5 446.966,-137.5 452.966,-137.5 458.966,-143.5 458.966,-149.5 458.966,-149.5 458.966,-365.5 458.966,-365.5 458.966,-371.5 452.966,-377.5 446.966,-377.5 446.966,-377.5 266.41,-377.5 266.41,-377.5 260.41,-377.5 254.41,-371.5 254.41,-365.5 254.41,-365.5 254.41,-149.5 254.41,-149.5 254.41,-143.5 260.41,-137.5 266.41,-137.5"/>
<text text-anchor="middle" x="356.688" y="-362.3" font-family="Times,serif" font-size="14.00">User</text>
<polyline fill="none" stroke="black" points="254.41,-355.5 458.966,-355.5 "/>
<text text-anchor="start" x="262.41" y="-340.3" font-family="Times,serif" font-size="14.00">updated_at :datetime</text>
<text text-anchor="start" x="262.41" y="-326.3" font-family="Times,serif" font-size="14.00">email :varchar</text>
<text text-anchor="start" x="262.41" y="-312.3" font-family="Times,serif" font-size="14.00">encrypted_password :varchar</text>
<text text-anchor="start" x="262.41" y="-298.3" font-family="Times,serif" font-size="14.00">reset_password_token :varchar</text>
<text text-anchor="start" x="262.41" y="-284.3" font-family="Times,serif" font-size="14.00">reset_password_sent_at :datetime</text>
<text text-anchor="start" x="262.41" y="-270.3" font-family="Times,serif" font-size="14.00">remember_created_at :datetime</text>
<text text-anchor="start" x="262.41" y="-256.3" font-family="Times,serif" font-size="14.00">sign_in_count :integer</text>
<text text-anchor="start" x="262.41" y="-242.3" font-family="Times,serif" font-size="14.00">current_sign_in_at :datetime</text>
<text text-anchor="start" x="262.41" y="-228.3" font-family="Times,serif" font-size="14.00">last_sign_in_at :datetime</text>
<text text-anchor="start" x="262.41" y="-214.3" font-family="Times,serif" font-size="14.00">current_sign_in_ip :varchar</text>
<text text-anchor="start" x="262.41" y="-200.3" font-family="Times,serif" font-size="14.00">last_sign_in_ip :varchar</text>
<text text-anchor="start" x="262.41" y="-186.3" font-family="Times,serif" font-size="14.00">name :varchar</text>
<text text-anchor="start" x="262.41" y="-172.3" font-family="Times,serif" font-size="14.00">role :integer</text>
<text text-anchor="start" x="262.41" y="-158.3" font-family="Times,serif" font-size="14.00">created_at :datetime</text>
<text text-anchor="start" x="262.41" y="-144.3" font-family="Times,serif" font-size="14.00">id :INTEGER</text>
</g>
<!-- Pokemon&#45;&gt;User -->
<g id="edge2" class="edge"><title>Pokemon&#45;&gt;User</title>
<path fill="none" stroke="#a75d76" d="M310.351,-404.638C312.082,-399.179 313.878,-393.516 315.712,-387.731"/>
<polygon fill="#a75d76" stroke="#a75d76" points="310.279,-404.865 302.967,-413.037 308.768,-409.631 307.257,-414.397 307.257,-414.397 307.257,-414.397 308.768,-409.631 311.546,-415.758 310.279,-404.865 310.279,-404.865"/>
<polygon fill="#a75d76" stroke="#a75d76" points="315.809,-387.427 323.121,-379.254 317.32,-382.66 318.831,-377.894 318.831,-377.894 318.831,-377.894 317.32,-382.66 314.542,-376.534 315.809,-387.427 315.809,-387.427"/>
</g>
<!-- User&#45;&gt;PokeUser -->
<g id="edge3" class="edge"><title>User&#45;&gt;PokeUser</title>
<path fill="none" stroke="#38523b" d="M316.409,-129.466C314.306,-122.836 312.25,-116.351 310.278,-110.132"/>
<ellipse fill="none" stroke="#38523b" cx="317.668" cy="-133.438" rx="4.00001" ry="4.00001"/>
<polygon fill="#38523b" stroke="#38523b" points="310.277,-110.127 311.544,-99.2343 308.766,-105.361 307.254,-100.594 307.254,-100.594 307.254,-100.594 308.766,-105.361 302.965,-101.955 310.277,-110.127 310.277,-110.127"/>
</g>
</g>
</svg>
