<?xml version="1.0" encoding="UTF-8" standalone="no"?>
<!DOCTYPE svg PUBLIC "-//W3C//DTD SVG 1.1//EN"
 "http://www.w3.org/Graphics/SVG/1.1/DTD/svg11.dtd">
<!-- Generated by graphviz version 2.38.0 (20140413.2041)
 -->
<!-- Title: models_diagram Pages: 1 -->
<svg width="331pt" height="225pt"
 viewBox="0.00 0.00 330.69 225.00" xmlns="http://www.w3.org/2000/svg" xmlns:xlink="http://www.w3.org/1999/xlink">
<g id="graph0" class="graph" transform="scale(1 1) rotate(0) translate(4 221)">
<title>models_diagram</title>
<polygon fill="none" stroke="none" points="-4,4 -4,-221 326.688,-221 326.688,4 -4,4"/>
<!-- _diagram_info -->
<g id="node1" class="node"><title>_diagram_info</title>
<text text-anchor="start" x="8" y="-202.6" font-family="Times,serif" font-size="13.00">Models diagram</text>
<text text-anchor="start" x="8" y="-189.6" font-family="Times,serif" font-size="13.00">Date: Jul 29 2016 &#45; 19:16</text>
<text text-anchor="start" x="8" y="-176.6" font-family="Times,serif" font-size="13.00">Migration version: 20160729231307</text>
<text text-anchor="start" x="8" y="-163.6" font-family="Times,serif" font-size="13.00">Generated by RailRoady 1.5.1</text>
<text text-anchor="start" x="8" y="-150.6" font-family="Times,serif" font-size="13.00">http://railroady.prestonlee.com</text>
</g>
<!-- PokeUser -->
<g id="node2" class="node"><title>PokeUser</title>
<ellipse fill="none" stroke="black" cx="267.688" cy="-18" rx="44.4837" ry="18"/>
<text text-anchor="middle" x="267.688" y="-13.8" font-family="Times,serif" font-size="14.00">PokeUser</text>
</g>
<!-- Pokemon -->
<g id="node3" class="node"><title>Pokemon</title>
<ellipse fill="none" stroke="black" cx="268.688" cy="-180.5" rx="43.5319" ry="18"/>
<text text-anchor="middle" x="268.688" y="-176.3" font-family="Times,serif" font-size="14.00">Pokemon</text>
</g>
<!-- Pokemon&#45;&gt;PokeUser -->
<g id="edge1" class="edge"><title>Pokemon&#45;&gt;PokeUser</title>
<path fill="none" stroke="#c8d7af" d="M264.317,-154.297C261.081,-132.518 257.572,-100.193 259.688,-72 260.324,-63.5179 261.526,-54.3361 262.809,-46.0356"/>
<ellipse fill="none" stroke="#c8d7af" cx="264.961" cy="-158.426" rx="4.00001" ry="4.00001"/>
<polygon fill="#c8d7af" stroke="#c8d7af" points="262.818,-45.9796 268.88,-36.8417 263.629,-41.0458 264.439,-36.1119 264.439,-36.1119 264.439,-36.1119 263.629,-41.0458 259.999,-35.3822 262.818,-45.9796 262.818,-45.9796"/>
</g>
<!-- User -->
<g id="node4" class="node"><title>User</title>
<ellipse fill="none" stroke="black" cx="295.688" cy="-90" rx="27" ry="18"/>
<text text-anchor="middle" x="295.688" y="-85.8" font-family="Times,serif" font-size="14.00">User</text>
</g>
<!-- Pokemon&#45;&gt;User -->
<g id="edge2" class="edge"><title>Pokemon&#45;&gt;User</title>
<path fill="none" stroke="#de3426" d="M276.812,-152.871C280.239,-141.637 284.219,-128.591 287.639,-117.383"/>
<polygon fill="#de3426" stroke="#de3426" points="276.812,-152.872 269.589,-161.123 275.353,-157.654 273.894,-162.436 273.894,-162.436 273.894,-162.436 275.353,-157.654 278.198,-163.749 276.812,-152.872 276.812,-152.872"/>
<polygon fill="#de3426" stroke="#de3426" points="287.671,-117.276 294.894,-109.024 289.13,-112.494 290.589,-107.711 290.589,-107.711 290.589,-107.711 289.13,-112.494 286.285,-106.398 287.671,-117.276 287.671,-117.276"/>
</g>
<!-- User&#45;&gt;PokeUser -->
<g id="edge3" class="edge"><title>User&#45;&gt;PokeUser</title>
<path fill="none" stroke="#d03e3d" d="M285.999,-64.7779C283.505,-58.544 280.81,-51.8046 278.273,-45.4634"/>
<ellipse fill="none" stroke="#d03e3d" cx="287.567" cy="-68.6971" rx="4.00001" ry="4.00001"/>
<polygon fill="#d03e3d" stroke="#d03e3d" points="278.184,-45.241 278.648,-34.2849 276.327,-40.5986 274.47,-35.9562 274.47,-35.9562 274.47,-35.9562 276.327,-40.5986 270.292,-37.6275 278.184,-45.241 278.184,-45.241"/>
</g>
</g>
</svg>
